<svg width="590" height="222" xmlns="http://www.w3.org/2000/svg" xmlns:xlink="http://www.w3.org/1999/xlink" overflow="hidden"><defs><clipPath id="clip0"><rect x="45" y="660" width="590" height="222"/></clipPath></defs><g clip-path="url(#clip0)" transform="translate(-45 -660)"><rect x="47.5001" y="662.5" width="586" height="218" stroke="#FFFFFF" stroke-width="1.33333" stroke-miterlimit="8" fill="none"/><text fill="#FFFFFF" font-family="Bahnschrift SemiBold,Bahnschrift SemiBold_MSFontService,sans-serif" font-weight="600" font-size="16" transform="translate(297.251 682)">Engineering</text><path d="M189 788 224 753 224 770.5 449 770.5 449 753 484 788 449 823 449 805.5 224 805.5 224 823Z" fill="#FFFFFF" fill-rule="evenodd" fill-opacity="0.309804"/><path d="M380.802 785.243 387.998 779.285 393.729 784.159 389.004 792.218C392.325 796.006 394.851 800.439 396.426 805.248L405.768 805.269 407.071 812.761 398.285 815.936C398.428 821.001 397.551 826.042 395.707 830.753L402.899 836.715 399.151 843.295 390.354 840.151C387.251 844.124 383.382 847.415 378.983 849.822L380.646 859.015 373.628 861.604 368.922 853.534C364.025 854.556 358.975 854.556 354.078 853.534L349.372 861.604 342.355 859.015 344.017 849.822C339.618 847.415 335.749 844.124 332.646 840.151L323.849 843.295 320.101 836.715 327.293 830.752C325.449 826.042 324.572 821.001 324.715 815.936L315.929 812.761 317.232 805.269 326.574 805.248C328.149 800.439 330.675 796.006 333.996 792.218L329.271 784.159 335.002 779.285 342.198 785.243C346.454 782.585 351.201 780.834 356.147 780.097L357.769 770.897 365.232 770.897 366.854 780.097C371.8 780.834 376.546 782.585 380.802 785.243Z" stroke="#FFFFFF" stroke-width="1.33333" stroke-miterlimit="8" fill="none" fill-rule="evenodd"/><text fill="#FFFFFF" font-family="Bahnschrift SemiBold,Bahnschrift SemiBold_MSFontService,sans-serif" font-weight="600" font-size="9" transform="translate(334.162 819)">Methodology</text><path d="M311.633 766.469 321.517 763.49 325.155 769.79 317.632 776.861C318.723 780.881 318.723 785.119 317.632 789.139L325.155 796.21 321.517 802.51 311.633 799.531C308.696 802.485 305.026 804.604 301 805.67L298.637 815.72 291.363 815.72 289 805.67C284.974 804.604 281.304 802.485 278.367 799.531L268.483 802.51 264.846 796.21 272.368 789.139C271.277 785.119 271.277 780.881 272.368 776.861L264.846 769.79 268.483 763.49 278.368 766.469C281.304 763.515 284.974 761.396 289 760.331L291.363 750.281 298.637 750.281 301 760.331C305.026 761.396 308.696 763.515 311.633 766.469Z" stroke="#FFFFFF" stroke-width="1.33333" stroke-miterlimit="8" fill="none" fill-rule="evenodd"/><text fill="#FFFFFF" font-family="Bahnschrift SemiBold,Bahnschrift SemiBold_MSFontService,sans-serif" font-weight="600" font-size="11" transform="translate(284.451 785)">Tool</text><path d="M342.892 715.192 351.512 709.853 356.565 714.905 351.225 723.526C353.282 727.062 354.359 731.083 354.347 735.174L363.281 739.97 361.431 746.871 351.296 746.558C349.262 750.107 346.318 753.05 342.769 755.085L343.083 765.22 336.181 767.069 331.385 758.135C327.294 758.148 323.274 757.07 319.737 755.014L311.116 760.353 306.064 755.301 311.403 746.68C309.347 743.144 308.27 739.123 308.282 735.032L299.348 730.236 301.197 723.335 311.332 723.648C313.367 720.099 316.31 717.156 319.86 715.121L319.546 704.986 326.447 703.137 331.244 712.071C335.335 712.058 339.355 713.135 342.892 715.192Z" stroke="#FFFFFF" stroke-width="1.33333" stroke-miterlimit="8" fill="none" fill-rule="evenodd"/><text fill="#FFFFFF" font-family="Bahnschrift SemiBold,Bahnschrift SemiBold_MSFontService,sans-serif" font-weight="600" font-size="9" transform="translate(314.208 738)">Process</text><path d="M364.238 762.189C394.786 762.044 419.667 786.691 419.811 817.238 419.873 830.325 415.293 843.01 406.885 853.038L409.498 855.626 401.842 854.469 400.326 846.545 402.939 849.132C420.409 827.903 417.362 796.531 396.132 779.061 387.159 771.677 375.885 767.664 364.265 767.719Z" stroke="#FFFFFF" stroke-linejoin="round" stroke-miterlimit="10" fill="none" fill-rule="evenodd"/><path d="M277.331 742.244 279.473 747.363C266.006 752.997 257.688 766.65 258.856 781.2L262.446 780.414 256.818 786.311 249.799 783.183 253.393 782.396C251.68 765.205 261.394 748.912 277.331 742.244Z" stroke="#FFFFFF" stroke-linejoin="round" stroke-miterlimit="10" fill="none" fill-rule="evenodd"/><path d="M287.364 739.628C286.354 727.754 290.34 715.997 298.364 707.187L295.916 704.423 303.472 706.052 304.525 714.143 302.079 711.381C295.36 719 292.048 729.034 292.909 739.156Z" stroke="#FFFFFF" stroke-linejoin="round" stroke-miterlimit="10" fill="none" fill-rule="evenodd"/><text fill="#FFFFFF" font-family="Bahnschrift SemiBold,Bahnschrift SemiBold_MSFontService,sans-serif" font-weight="600" font-size="24" transform="translate(106.338 799)">Business<tspan font-size="24" x="344.022" y="-4">Technology</tspan></text><path d="M387.578 741.022C387.57 740.946 387.547 740.876 387.547 740.799L387.547 740.145C387.547 739.834 387.596 739.527 387.694 739.235 387.694 739.235 389.26 737.053 390 734.49 389.189 732.709 388.453 730.492 388.453 728.295 388.453 727.785 388.489 727.291 388.539 726.805 387.483 725.653 386.055 725 384.478 725 381.222 725 378.58 727.766 378.58 732.064 378.58 735.503 381.268 739.235 381.268 739.235 381.363 739.527 381.412 739.834 381.412 740.145L381.412 740.799C381.412 741.615 380.955 742.357 380.242 742.697L375.973 744.512C374.981 744.988 374.275 745.937 374.078 747.053L374.005 748.031C373.968 748.539 374.135 749.041 374.468 749.413 374.8 749.789 375.267 750 375.758 750L382.734 750 383.02 746.173 383.039 746.07C383.388 744.063 384.662 742.357 386.442 741.504L387.578 741.022Z" stroke="#FFFFFF" stroke-width="2" stroke-miterlimit="8" stroke-opacity="0.501961" fill="none" fill-rule="evenodd"/><path d="M421.917 747.053C421.709 745.937 420.959 744.988 419.905 744.512L415.366 742.697C414.609 742.357 414.126 741.615 414.126 740.799L414.126 740.145C414.126 739.834 414.176 739.527 414.28 739.235 414.28 739.235 417.135 735.503 417.135 732.064 417.135 727.766 414.329 725 410.863 725 409.19 725 407.673 725.653 406.547 726.808 406.602 727.293 406.641 727.785 406.641 728.295 406.641 730.491 405.86 732.707 405 734.488 405.785 737.052 407.452 739.235 407.452 739.235 407.553 739.527 407.606 739.834 407.606 740.145L407.606 740.799C407.606 740.875 407.58 740.946 407.572 741.022L408.697 741.471C410.667 742.354 412.021 744.06 412.397 746.067L412.415 746.172 412.717 750 420.134 750C420.655 750 421.151 749.789 421.503 749.413 421.857 749.041 422.034 748.539 421.995 748.031L421.917 747.053Z" stroke="#FFFFFF" stroke-width="2" stroke-miterlimit="8" stroke-opacity="0.501961" fill="none" fill-rule="evenodd"/><path d="M408.413 743.417 403.186 741.236C402.313 740.827 401.756 739.936 401.756 738.96L401.756 738.173C401.756 737.802 401.815 737.432 401.935 737.081 401.935 737.081 405.222 732.605 405.222 728.476 405.222 723.317 401.989 720 398 720 394.012 720 390.778 723.317 390.778 728.476 390.778 732.605 394.068 737.081 394.068 737.081 394.185 737.432 394.246 737.802 394.246 738.173L394.246 738.96C394.246 739.936 393.685 740.827 392.814 741.236L387.587 743.417C386.373 743.985 385.508 745.125 385.269 746.466L385 750 398 750 411 750 410.734 746.466C410.492 745.125 409.627 743.985 408.413 743.417Z" stroke="#FFFFFF" stroke-width="2" stroke-miterlimit="8" stroke-opacity="0.501961" fill="none" fill-rule="evenodd"/><path d="M148.088 821 151 816.256C144.795 813.371 138.161 813.291 133 815.8L133.335 817.303C138.154 817.276 143.244 818.49 148.088 821Z" stroke="#FFFFFF" stroke-width="2" stroke-miterlimit="8" fill="none" fill-rule="evenodd"/><path d="M165.52 838 166.999 837.711C167.057 831.865 164.188 825.67 158.999 821L156 825.631C160.282 829.174 163.509 833.464 165.52 838Z" stroke="#FFFFFF" stroke-width="2" stroke-miterlimit="8" fill="none" fill-rule="evenodd"/><path d="M153.851 826 157.819 819.733C158.157 819.199 158.008 818.486 157.485 818.139L154.53 816.184C154.007 815.84 153.308 815.992 152.969 816.526L149 822.793 153.851 826Z" stroke="#FFFFFF" stroke-width="2" stroke-miterlimit="8" fill="none" fill-rule="evenodd"/><path d="M148.136 825 131.209 851.827C130.819 852.447 130.99 853.275 131.598 853.676L133.27 854.785C133.874 855.187 134.682 855.008 135.073 854.389L152 827.564 148.136 825Z" stroke="#FFFFFF" stroke-width="2" stroke-miterlimit="8" fill="none" fill-rule="evenodd"/><path d="M160.393 852.357C160.11 851.547 159.317 851 158.422 851L154.578 851C153.685 851 152.89 851.547 152.607 852.357L151.048 856.825C150.953 857.097 151.001 857.396 151.177 857.629 151.352 857.862 151.636 858 151.935 858L161.065 858C161.366 858 161.648 857.862 161.824 857.629 161.999 857.396 162.047 857.097 161.952 856.825L160.393 852.357Z" stroke="#FFFFFF" stroke-width="2" stroke-miterlimit="8" fill="none" fill-rule="evenodd"/><path d="M172.393 852.357C172.112 851.547 171.317 851 170.422 851L166.578 851C165.685 851 164.89 851.547 164.607 852.357L163.048 856.825C162.953 857.097 163.001 857.396 163.177 857.629 163.352 857.862 163.636 858 163.935 858L173.065 858C173.366 858 173.648 857.862 173.824 857.629 173.999 857.396 174.047 857.097 173.952 856.825L172.393 852.357Z" stroke="#FFFFFF" stroke-width="2" stroke-miterlimit="8" fill="none" fill-rule="evenodd"/><path d="M164.423 842 160.577 842C159.683 842 158.889 842.625 158.606 843.55L157.048 848.657C156.953 848.967 157 849.31 157.175 849.576 157.352 849.842 157.633 850 157.934 850L167.066 850C167.365 850 167.648 849.842 167.824 849.576 168 849.31 168.047 848.967 167.952 848.657L166.394 843.55C166.11 842.625 165.316 842 164.423 842Z" stroke="#FFFFFF" stroke-width="2" stroke-miterlimit="8" fill="none" fill-rule="evenodd"/><path d="M153.852 843 154.149 843C154.546 839.829 155.83 838.545 159 838.148L159 837.851C155.831 837.455 154.546 836.171 154.149 833L153.852 833C153.456 836.171 152.172 837.455 149 837.852L149 838.148C152.172 838.545 153.456 839.829 153.852 843Z" stroke="#FFFFFF" stroke-width="2" stroke-miterlimit="8" fill="none" fill-rule="evenodd"/><path d="M169.396 826 169.604 826C169.881 823.78 170.781 822.881 173 822.604L173 822.395C170.781 822.119 169.881 821.22 169.604 819L169.396 819C169.119 821.22 168.22 822.119 166 822.397L166 822.604C168.22 822.881 169.119 823.781 169.396 826Z" stroke="#FFFFFF" stroke-width="2" stroke-miterlimit="8" fill="none" fill-rule="evenodd"/><path d="M171.604 840 171.396 840C171.119 842.22 170.22 843.119 168 843.397L168 843.604C170.22 843.881 171.119 844.78 171.396 847L171.604 847C171.881 844.78 172.781 843.881 175 843.604L175 843.395C172.781 843.119 171.881 842.22 171.604 840Z" stroke="#FFFFFF" stroke-width="2" stroke-miterlimit="8" fill="none" fill-rule="evenodd"/><path d="M294.92 827.292C294.362 827.292 293.8 827.535 293.8 827.535 292.651 828.201 290.421 829.615 289.188 829.405 287.583 829.132 283.888 829.101 280.776 829.795 280.577 829.66 280.377 829.521 280.18 829.397 279.578 829.02 278.989 828.701 278.403 828.461 277.835 828.23 277.269 828.071 276.678 828.039L276.678 828.036C275.788 827.961 274.925 827.929 274.134 827.929 272.937 827.932 271.916 828.001 271.158 828.127L271.158 828.126 271.145 828.127C271.086 828.133 270.789 828.082 270.438 827.95 269.901 827.757 269.216 827.419 268.584 827.076 267.947 826.73 267.364 826.387 266.943 826.154 266.737 826.041 266.509 825.988 266.275 826.002 262.747 826.197 259.926 827.605 258.004 829.477 256.086 831.357 255.013 833.673 255 835.858 255 836.524 255.105 837.179 255.339 837.794 255.556 838.368 255.893 838.901 256.336 839.346 256.415 839.45 256.488 839.532 256.565 839.615 256.753 839.81 256.977 840.018 257.241 840.264 258.025 840.99 259.15 842.03 259.88 842.968 260.605 843.895 261.072 844.74 261.46 845.493 261.654 845.868 261.827 846.223 262.011 846.561 262.087 846.702 262.168 846.838 262.253 846.975L262.124 847.107C261.664 847.566 261.407 848.182 261.399 848.84 261.393 849.497 261.636 850.12 262.086 850.591 262.544 851.068 263.155 851.331 263.808 851.331 264.266 851.331 264.704 851.196 265.085 850.95 264.83 851.342 264.689 851.801 264.683 852.282 264.676 852.938 264.921 853.561 265.37 854.031 265.827 854.509 266.439 854.771 267.092 854.771 267.606 854.771 268.093 854.6 268.503 854.294 267.756 855.252 267.797 856.649 268.655 857.547 269.112 858.025 269.723 858.287 270.375 858.287L270.376 858.287C271.009 858.287 271.608 858.037 272.064 857.58L272.509 857.128C272.323 857.478 272.211 857.866 272.207 858.274 272.2 858.932 272.443 859.554 272.894 860.024 273.351 860.501 273.962 860.765 274.616 860.765 275.249 860.765 275.847 860.515 276.307 860.056L276.587 859.766C276.724 859.881 276.85 859.986 276.953 860.069L277.154 860.226C277.221 860.273 277.26 860.308 277.387 860.383 277.896 860.669 278.383 860.793 278.771 860.879 278.964 860.921 279.129 860.949 279.252 860.966L279.402 860.986 279.448 860.991 279.466 860.992 279.477 860.994 279.489 860.995 279.505 860.996C279.52 860.996 279.513 860.998 279.59 861L279.681 860.996C280.53 860.932 281.333 860.634 281.992 860.119 282.255 859.913 282.485 859.665 282.69 859.393 283.096 859.528 283.526 859.608 283.974 859.608 285.811 859.606 287.355 858.398 287.931 856.72 288.217 856.783 288.508 856.825 288.811 856.825 290.615 856.822 292.142 855.658 292.742 854.027L292.891 854.042C295.219 854.042 297.102 852.114 297.103 849.734 297.104 849.075 297.015 848.343 296.768 847.584 298.367 846.14 300.706 843.911 301.129 842.7 301.334 842.118 301.824 840.804 302.157 840.328 302.66 839.765 303.978 838.497 303.978 838.497 306.927 835.696 303.368 827.768 294.92 827.292ZM292.891 851.457C292.662 851.457 292.446 851.41 292.245 851.325 292.183 851.297 292.117 851.286 292.053 851.269L290.261 849.089C289.866 848.621 289.174 848.569 288.717 848.974 288.258 849.378 288.208 850.085 288.603 850.555L290.465 852.818C290.324 853.624 289.64 854.239 288.811 854.239 288.386 854.239 288.008 854.083 287.706 853.813 287.648 853.762 287.579 853.731 287.515 853.69L285.879 851.696C285.484 851.226 284.792 851.175 284.334 851.58 283.876 851.985 283.825 852.691 284.221 853.161L285.627 854.886C285.631 854.928 285.623 854.971 285.63 855.013 285.649 855.118 285.658 855.213 285.658 855.299 285.656 856.251 284.903 857.02 283.974 857.022 283.683 857.022 283.415 856.947 283.178 856.816L281.112 854.636C280.672 854.211 279.978 854.233 279.564 854.682 279.149 855.134 279.17 855.842 279.61 856.267L280.81 857.613C280.725 857.783 280.616 857.938 280.455 858.065 280.232 858.241 279.926 858.361 279.577 858.401 279.475 858.386 279.337 858.362 279.172 858.321 278.971 858.276 278.761 858.199 278.647 858.139 278.616 858.116 278.537 858.053 278.422 857.96 278.33 857.885 278.215 857.788 278.09 857.684 278.269 856.892 278.067 856.025 277.471 855.404 277.015 854.925 276.403 854.663 275.749 854.663 275.423 854.663 275.108 854.73 274.815 854.858L274.771 854.819C275.186 854.367 275.424 853.786 275.431 853.161 275.437 852.503 275.193 851.882 274.743 851.412 274.286 850.935 273.674 850.671 273.021 850.671 272.51 850.671 272.026 850.84 271.618 851.143 271.948 850.716 272.14 850.2 272.146 849.648 272.153 848.99 271.909 848.369 271.459 847.899 271.003 847.42 270.391 847.157 269.737 847.157 269.104 847.157 268.506 847.407 268.051 847.863L267.644 848.276C268.145 847.348 268.03 846.159 267.269 845.364 266.812 844.886 266.2 844.623 265.546 844.623 265.025 844.623 264.534 844.8 264.119 845.115 263.681 844.277 263.056 842.887 261.854 841.353 261.145 840.448 260.28 839.606 259.56 838.928 259.201 838.59 258.878 838.295 258.642 838.071 258.524 837.958 258.428 837.863 258.367 837.802L258.308 837.738 258.308 837.737 258.305 837.74 258.146 837.549C257.949 837.361 257.802 837.138 257.695 836.859 257.59 836.581 257.528 836.245 257.528 835.858 257.516 834.587 258.244 832.801 259.746 831.352 261.186 829.954 263.299 828.851 266.077 828.619 266.592 828.91 267.329 829.339 268.111 829.732 268.596 829.976 269.096 830.207 269.594 830.387 270.097 830.564 270.581 830.707 271.146 830.714 271.285 830.714 271.416 830.702 271.536 830.684L271.554 830.681C272.089 830.587 273.037 830.514 274.134 830.516 274.86 830.514 275.657 830.544 276.47 830.613L276.528 830.616C276.727 830.622 277.06 830.695 277.465 830.862L277.557 830.905C274.147 832.481 269.314 835.51 267.725 836.052 265.912 836.671 265.76 839.146 269.841 839.608 273.922 840.073 277.55 837.443 278.456 836.981 279.107 836.648 283.242 837.055 285.532 837.311 286.542 838.331 287.427 839.277 288.073 839.993L293.103 846.283 293.125 846.309C293.77 847.072 294.12 847.692 294.317 848.223 294.514 848.755 294.574 849.213 294.575 849.735 294.574 850.686 293.822 851.455 292.891 851.457Z" stroke="#FFFFFF" stroke-width="2" stroke-miterlimit="8" stroke-opacity="0.501961" fill="none" fill-rule="evenodd"/><path d="M510 815C510.002 814.998 510.004 814.997 510.005 814.995L511 814 510 815Z" stroke="#FFFFFF" stroke-width="2" stroke-miterlimit="8" fill="none" fill-rule="evenodd"/><path d="M528 814 528.995 814.995C528.996 814.997 528.998 814.998 529 815L528 814Z" stroke="#FFFFFF" stroke-width="2" stroke-miterlimit="8" fill="none" fill-rule="evenodd"/><path d="M533 824.585C533.001 820.837 531.487 817.434 529.046 814.979L529.042 814.976C526.603 812.521 523.223 810.999 519.5 811 515.777 810.999 512.397 812.521 509.958 814.976L509.954 814.979C507.513 817.434 505.999 820.837 506 824.585 506 827.094 506.68 829.448 507.862 831.463L507.862 831.463C507.863 831.465 507.864 831.466 507.865 831.468 507.868 831.474 507.871 831.479 507.874 831.485L507.876 831.484C508.736 833.018 509.969 834.224 510.929 835.337 511.413 835.893 511.827 836.421 512.105 836.915 512.384 837.411 512.526 837.852 512.536 838.295L512.536 845.825C512.537 848.148 514.406 850.03 516.715 850.03L517.718 850.03C518.169 850.616 518.867 851 519.661 851 520.454 851 521.152 850.616 521.603 850.03L522.286 850.03C524.594 850.03 526.464 848.148 526.464 845.825L526.464 838.295C526.474 837.852 526.616 837.411 526.895 836.915 527.311 836.173 528.04 835.361 528.837 834.477 529.627 833.595 530.482 832.634 531.125 831.484L531.126 831.485C531.129 831.48 531.131 831.474 531.134 831.469 531.136 831.467 531.137 831.465 531.138 831.463L531.138 831.463C532.32 829.448 533 827.094 533 824.585ZM524.535 845.825C524.535 846.454 524.285 847.014 523.877 847.426 523.466 847.838 522.91 848.089 522.285 848.09L516.714 848.089C516.09 848.089 515.534 847.838 515.123 847.426 514.715 847.014 514.465 846.454 514.464 845.825L514.464 839.248 524.535 839.248 524.535 845.825ZM529.466 830.496 529.461 830.506 529.454 830.518C528.787 831.733 527.657 832.872 526.619 834.06 526.101 834.657 525.606 835.272 525.219 835.956 524.983 836.373 524.796 836.826 524.675 837.308L514.325 837.308C514.204 836.826 514.017 836.373 513.781 835.956 513.198 834.932 512.38 834.055 511.594 833.176 510.806 832.3 510.048 831.427 509.546 830.518L509.539 830.504 509.533 830.496C508.514 828.763 507.929 826.747 507.928 824.585 507.929 821.366 509.222 818.461 511.318 816.352L511.318 816.352C513.415 814.243 516.302 812.941 519.5 812.941 522.698 812.941 525.585 814.243 527.682 816.352L527.682 816.352C529.778 818.461 531.071 821.366 531.071 824.585 531.071 826.747 530.486 828.763 529.466 830.496Z" stroke="#FFFFFF" stroke-width="2" stroke-miterlimit="8" fill="none" fill-rule="evenodd"/><path d="M514.411 827.924C514.527 828.501 514.664 828.648 514.553 829.178 514.444 829.708 514 830.572 514 830.572L514.912 831C514.912 831 515.054 830.697 515.371 830.06 516.428 827.943 520.655 830.516 523.045 826.023 524.329 823.608 523.746 821.117 524 819.512 517.748 817.491 513.157 821.691 514.411 827.924ZM522.16 820.482C518.455 823.119 516.843 826.843 516.722 827.062 516.556 827.364 515.958 827.031 516.086 826.546 516.214 826.062 516.428 825.255 517.931 823.15 519.433 821.046 522.085 820.115 522.16 820.482Z" stroke="#FFFFFF" stroke-width="2" stroke-miterlimit="8" fill="none" fill-rule="evenodd"/><path d="M119.5 732 104 736.289 104 738.763 105.069 738.763 105.069 740 133.931 740 133.931 738.763 135 738.763 135 736.289Z" stroke="#FFFFFF" stroke-width="2" stroke-miterlimit="8" stroke-opacity="0.501961" fill="none" fill-rule="evenodd"/><path d="M133.931 761 105.069 761 105.069 763 104 763 104 766 135 766 135 763 133.931 763Z" stroke="#FFFFFF" stroke-width="2" stroke-miterlimit="8" stroke-opacity="0.501961" fill="none" fill-rule="evenodd"/><path d="M128 757.954 128 759 132 759 132 757.954 131.5 757.954 131.5 743.046 132 743.046 132 742 128 742 128 743.046 128.5 743.046 128.5 757.954Z" stroke="#FFFFFF" stroke-width="2" stroke-miterlimit="8" stroke-opacity="0.501961" fill="none" fill-rule="evenodd"/><path d="M121 757.954 121 759 125 759 125 757.954 124.5 757.954 124.5 743.046 125 743.046 125 742 121 742 121 743.046 121.5 743.046 121.5 757.954Z" stroke="#FFFFFF" stroke-width="2" stroke-miterlimit="8" stroke-opacity="0.501961" fill="none" fill-rule="evenodd"/><path d="M113 757.954 113 759 118 759 118 757.954 117.375 757.954 117.375 743.046 118 743.046 118 742 113 742 113 743.046 113.625 743.046 113.625 757.954Z" stroke="#FFFFFF" stroke-width="2" stroke-miterlimit="8" stroke-opacity="0.501961" fill="none" fill-rule="evenodd"/><path d="M106 757.954 106 759 111 759 111 757.954 110.375 757.954 110.375 743.046 111 743.046 111 742 106 742 106 743.046 106.625 743.046 106.625 757.954Z" stroke="#FFFFFF" stroke-width="2" stroke-miterlimit="8" stroke-opacity="0.501961" fill="none" fill-rule="evenodd"/><path d="M186.495 742.2 175.627 749.415 175.627 742.2 164.286 749.729 163.341 736 153.89 736 152 767 189 767 186.495 742.2ZM166.066 759.19 161.603 759.19 161.603 755.006 166.066 755.006 166.066 759.19ZM178.746 759.19 174.281 759.19 174.281 755.006 178.746 755.006 178.746 759.19Z" stroke="#FFFFFF" stroke-width="2" stroke-miterlimit="8" stroke-opacity="0.501961" fill="none" fill-rule="evenodd"/><path d="M510 732.062C510 731.476 509.622 731 509.155 731L508.845 731C508.378 731 508 731.476 508 732.062L508 735 510 735 510 732.062Z" stroke="#FFFFFF" stroke-width="2" stroke-miterlimit="8" stroke-opacity="0.501961" fill="none" fill-rule="evenodd"/><path d="M516 732.062C516 731.476 515.432 731 514.733 731L514.267 731C513.568 731 513 731.476 513 732.062L513 735 516 735 516 732.062Z" stroke="#FFFFFF" stroke-width="2" stroke-miterlimit="8" stroke-opacity="0.501961" fill="none" fill-rule="evenodd"/><path d="M521 732.062C521 731.476 520.622 731 520.155 731L519.845 731C519.378 731 519 731.476 519 732.062L519 735 521 735 521 732.062Z" stroke="#FFFFFF" stroke-width="2" stroke-miterlimit="8" stroke-opacity="0.501961" fill="none" fill-rule="evenodd"/><path d="M527 732.062C527 731.476 526.432 731 525.733 731L525.267 731C524.568 731 524 731.476 524 732.062L524 735 527 735 527 732.062Z" stroke="#FFFFFF" stroke-width="2" stroke-miterlimit="8" stroke-opacity="0.501961" fill="none" fill-rule="evenodd"/><path d="M508 768.672C508 769.406 508.378 770 508.845 770L509.155 770C509.622 770 510 769.406 510 768.672L510 765 508 765 508 768.672Z" stroke="#FFFFFF" stroke-width="2" stroke-miterlimit="8" stroke-opacity="0.501961" fill="none" fill-rule="evenodd"/><path d="M513 768.672C513 769.406 513.568 770 514.267 770L514.733 770C515.432 770 516 769.406 516 768.672L516 765 513 765 513 768.672Z" stroke="#FFFFFF" stroke-width="2" stroke-miterlimit="8" stroke-opacity="0.501961" fill="none" fill-rule="evenodd"/><path d="M519 768.672C519 769.406 519.378 770 519.845 770L520.155 770C520.622 770 521 769.406 521 768.672L521 765 519 765 519 768.672Z" stroke="#FFFFFF" stroke-width="2" stroke-miterlimit="8" stroke-opacity="0.501961" fill="none" fill-rule="evenodd"/><path d="M524 768.672C524 769.406 524.568 770 525.267 770L525.733 770C526.432 770 527 769.406 527 768.672L527 765 524 765 524 768.672Z" stroke="#FFFFFF" stroke-width="2" stroke-miterlimit="8" stroke-opacity="0.501961" fill="none" fill-rule="evenodd"/><path d="M535.673 741 532 741 532 743 535.673 743C536.406 743 537 742.622 537 742.155L537 741.845C537 741.378 536.406 741 535.673 741Z" stroke="#FFFFFF" stroke-width="2" stroke-miterlimit="8" stroke-opacity="0.501961" fill="none" fill-rule="evenodd"/><path d="M535.673 746 532 746 532 749 535.673 749C536.406 749 537 748.432 537 747.733L537 747.268C537 746.568 536.406 746 535.673 746Z" stroke="#FFFFFF" stroke-width="2" stroke-miterlimit="8" stroke-opacity="0.501961" fill="none" fill-rule="evenodd"/><path d="M535.673 752 532 752 532 754 535.673 754C536.406 754 537 753.622 537 753.155L537 752.845C537 752.378 536.406 752 535.673 752Z" stroke="#FFFFFF" stroke-width="2" stroke-miterlimit="8" stroke-opacity="0.501961" fill="none" fill-rule="evenodd"/><path d="M535.673 757 532 757 532 760 535.673 760C536.406 760 537 759.432 537 758.732L537 758.268C537 757.568 536.406 757 535.673 757Z" stroke="#FFFFFF" stroke-width="2" stroke-miterlimit="8" stroke-opacity="0.501961" fill="none" fill-rule="evenodd"/><path d="M498 741.845 498 742.155C498 742.622 498.476 743 499.061 743L502 743 502 741 499.061 741C498.476 741 498 741.378 498 741.845Z" stroke="#FFFFFF" stroke-width="2" stroke-miterlimit="8" stroke-opacity="0.501961" fill="none" fill-rule="evenodd"/><path d="M498 747.268 498 747.733C498 748.432 498.476 749 499.061 749L502 749 502 746 499.061 746C498.476 746 498 746.568 498 747.268Z" stroke="#FFFFFF" stroke-width="2" stroke-miterlimit="8" stroke-opacity="0.501961" fill="none" fill-rule="evenodd"/><path d="M498 752.845 498 753.155C498 753.622 498.476 754 499.061 754L502 754 502 752 499.061 752C498.476 752 498 752.378 498 752.845Z" stroke="#FFFFFF" stroke-width="2" stroke-miterlimit="8" stroke-opacity="0.501961" fill="none" fill-rule="evenodd"/><path d="M498 758.268 498 758.732C498 759.432 498.476 760 499.061 760L502 760 502 757 499.061 757C498.476 757 498 757.567 498 758.268Z" stroke="#FFFFFF" stroke-width="2" stroke-miterlimit="8" stroke-opacity="0.501961" fill="none" fill-rule="evenodd"/><path d="M504 764 531 764 531 737 504 737 504 764ZM513.607 741.92 521.923 741.92 518.704 748.357 525.142 748.357 513.339 760.696 516.29 752.917 512.535 752.917 513.607 741.92Z" stroke="#FFFFFF" stroke-width="2" stroke-miterlimit="8" stroke-opacity="0.501961" fill="none" fill-rule="evenodd"/></g></svg>