<svg width="588" height="221" xmlns="http://www.w3.org/2000/svg" xmlns:xlink="http://www.w3.org/1999/xlink" overflow="hidden"><defs><clipPath id="clip0"><rect x="46" y="163" width="588" height="221"/></clipPath></defs><g clip-path="url(#clip0)" transform="translate(-46 -163)"><rect x="47.5001" y="164.5" width="586" height="219" stroke="#FFFFFF" stroke-width="1.33333" stroke-miterlimit="8" fill="none"/><text fill="#FFFFFF" font-family="Bahnschrift SemiBold,Bahnschrift SemiBold_MSFontService,sans-serif" font-weight="600" font-size="16" transform="translate(307.53 185)">Modeling</text><rect x="246.5" y="235.5" width="74" height="39" stroke="#FFFFFF" stroke-width="1.33333" stroke-miterlimit="8" fill="none"/><rect x="352.5" y="235.5" width="74" height="39" stroke="#FFFFFF" stroke-width="1.33333" stroke-miterlimit="8" fill="none"/><rect x="201.5" y="303.5" width="74" height="39" stroke="#FFFFFF" stroke-width="1.33333" stroke-miterlimit="8" fill="none"/><path d="M275.5 287.5 283.5 274.5 291.5 287.5Z" stroke="#FFFFFF" stroke-width="1.33333" stroke-miterlimit="8" fill="none" fill-rule="evenodd"/><path d="M283.469 287.5 283.469 295.576 238.5 295.576 238.5 303.651" stroke="#FFFFFF" stroke-width="0.666667" stroke-miterlimit="8" fill="none" fill-rule="evenodd"/><rect x="291.5" y="303.5" width="74" height="39" stroke="#FFFFFF" stroke-width="1.33333" stroke-miterlimit="8" fill="none"/><path d="M0 0 8.07564 0 8.07564 44.9692 16.1512 44.9692" stroke="#FFFFFF" stroke-width="0.666667" stroke-miterlimit="8" fill="none" fill-rule="evenodd" transform="matrix(1.83697e-16 1 1 -1.83697e-16 283.5 287.5)"/><path d="M389.755 274.5 389.755 323.031 365.5 323.031" stroke="#FFFFFF" stroke-width="0.666667" stroke-miterlimit="8" fill="none" fill-rule="evenodd"/><rect x="102.5" y="235.5" width="74" height="39" stroke="#FFFFFF" stroke-width="1.33333" stroke-miterlimit="8" fill="none"/><path d="M176.5 254.5 245.888 254.5" stroke="#FFFFFF" stroke-width="0.666667" stroke-miterlimit="8" fill="none" fill-rule="evenodd"/><rect x="102.5" y="303.5" width="74" height="39" stroke="#FFFFFF" stroke-width="1.33333" stroke-miterlimit="8" fill="none"/><path d="M139.5 303.626 139.5 286.4 211.418 286.4 211.418 253.5" stroke="#FFFFFF" stroke-width="0.666667" stroke-miterlimit="8" stroke-dasharray="0.666667 0.666667" fill="none" fill-rule="evenodd"/><text fill="#FFFFFF" font-family="Yu Gothic,Yu Gothic_MSFontService,sans-serif" font-weight="400" font-size="11" transform="translate(179.67 253)">0..1<tspan font-size="11" x="56.1066" y="0">＊</tspan><tspan font-size="11" x="188.661" y="82">1..</tspan><tspan font-size="11" x="200.328" y="82">＊</tspan><tspan font-size="11" x="214.429" y="36">1</tspan></text><path d="M541.802 279.168 548.958 273.163 554.675 277.96 550.004 286.051C553.325 289.787 555.851 294.161 557.426 298.906L566.768 298.905 568.064 306.255 559.285 309.45C559.428 314.447 558.551 319.421 556.707 324.068L563.864 330.073 560.132 336.536 551.354 333.34C548.251 337.26 544.382 340.507 539.983 342.882L541.606 352.082 534.593 354.634 529.922 346.544C525.025 347.552 519.975 347.552 515.078 346.544L510.407 354.634 503.395 352.082 505.017 342.882C500.618 340.507 496.749 337.26 493.646 333.34L484.868 336.536 481.136 330.073 488.293 324.068C486.449 319.421 485.572 314.447 485.715 309.45L476.937 306.255 478.232 298.905 487.574 298.906C489.149 294.161 491.675 289.787 494.996 286.051L490.325 277.96 496.042 273.163 503.198 279.168C507.454 276.546 512.201 274.819 517.147 274.092L518.769 264.892 526.231 264.892 527.853 274.092C532.8 274.819 537.546 276.546 541.802 279.168Z" stroke="#FFFFFF" stroke-width="1.33333" stroke-miterlimit="8" fill="none" fill-rule="evenodd"/><text fill="#FFFFFF" font-family="Bahnschrift SemiBold,Bahnschrift SemiBold_MSFontService,sans-serif" font-weight="600" font-size="11" transform="translate(504.145 307)">Domain <tspan font-size="11" x="-2.13333" y="12">Analysis</tspan></text><path d="M473.487 259.469 483.344 256.4 487.072 262.721 479.615 269.861C480.729 273.881 480.729 278.119 479.615 282.139L487.072 289.279 483.344 295.6 473.487 292.531C470.488 295.485 466.74 297.604 462.628 298.67L460.265 308.72 452.735 308.72 450.372 298.67C446.26 297.604 442.512 295.485 439.513 292.531L429.656 295.6 425.928 289.279 433.385 282.139C432.272 278.119 432.272 273.881 433.385 269.861L425.928 262.721 429.656 256.4 439.513 259.469C442.512 256.515 446.26 254.396 450.372 253.331L452.735 243.281 460.265 243.281 462.628 253.331C466.74 254.396 470.488 256.515 473.487 259.469Z" stroke="#FFFFFF" stroke-width="1.33333" stroke-miterlimit="8" fill="none" fill-rule="evenodd"/><text fill="#FFFFFF" font-family="Bahnschrift SemiBold,Bahnschrift SemiBold_MSFontService,sans-serif" font-weight="600" font-size="11" transform="translate(441.611 279)">Model</text><path d="M504.472 208.604 513.092 203.264 518.144 208.317 512.805 216.937C514.862 220.474 515.939 224.494 515.926 228.585L524.86 233.382 523.011 240.283 512.876 239.969C510.841 243.519 507.898 246.462 504.349 248.497L504.662 258.632 497.761 260.481 492.965 251.547C488.874 251.559 484.853 250.482 481.317 248.426L472.696 253.765 467.644 248.713 472.983 240.092C470.927 236.555 469.849 232.535 469.862 228.444L460.928 223.648 462.777 216.746 472.912 217.06C474.947 213.511 477.89 210.567 481.439 208.533L481.126 198.398 488.027 196.548 492.823 205.482C496.914 205.47 500.935 206.547 504.472 208.604Z" stroke="#FFFFFF" stroke-width="1.33333" stroke-miterlimit="8" fill="none" fill-rule="evenodd"/><text fill="#FFFFFF" font-family="Bahnschrift SemiBold,Bahnschrift SemiBold_MSFontService,sans-serif" font-weight="600" font-size="11" transform="translate(477.714 226)">Digital <tspan font-size="11" x="1.39999" y="12">Twins</tspan></text><path d="M525.738 255.189C556.562 255.046 581.667 279.693 581.811 310.241 581.874 323.411 577.192 336.17 568.609 346.225L571.225 348.814 563.52 347.646 562.052 339.733 564.667 342.322C582.418 321.179 579.497 289.792 558.141 272.218 549.05 264.736 537.587 260.665 525.765 260.719Z" stroke="#FFFFFF" stroke-linejoin="round" stroke-miterlimit="10" fill="none" fill-rule="evenodd"/><path d="M438.331 235.244 440.473 240.363C427.006 245.997 418.688 259.65 419.856 274.2L423.446 273.414 417.818 279.311 410.799 276.183 414.393 275.396C412.68 258.205 422.394 241.912 438.331 235.244Z" stroke="#FFFFFF" stroke-linejoin="round" stroke-miterlimit="10" fill="none" fill-rule="evenodd"/><path d="M449.319 232.589C448.34 220.805 452.219 209.136 460.037 200.347L457.618 197.615 465.073 199.166 466.135 207.231 463.718 204.502C457.187 212.11 453.972 222.073 454.804 232.122Z" stroke="#FFFFFF" stroke-linejoin="round" stroke-miterlimit="10" fill="none" fill-rule="evenodd"/></g></svg>